# xmcd CD database file
#
# Track frame offsets:
#	150
#	30589
#	70641
#	116068
#	145775
#	195965
#	233323
#
# Disc length: 3486 seconds
#
# Revision: 12
# Processed by: cddbd v1.5.2PL0 Copyright (c) Steve Scherf et al.
# Submitted via: CDex 1.51
#
DISCID=4d0d9c07
DTITLE=Keith Jarrett · Gary Peacock · Jack DeJohnette - My Foolish Heart: Live at Montreux , Cd 02
DYEAR=2007
DGENRE=Jazz
TTITLE0=Honeysuckle Rose
TTITLE1=You Took Advantage of Me
TTITLE2=Straight, No Chaser
TTITLE3=Five Brothers
TTITLE4=Guess I'll Hang My Tears Out to Dry
TTITLE5=On Green Dolphin Street
TTITLE6=Only the Lonely
EXTD=Keith Jarrett (b.1945): piano\nGary Peacock (b.1935): double-bass\nJack DeJohnette (b.1942): drums\nRecorded live at the 2001 Montreux Jazz Festival, Stravinski Auditorium, Montreux CH-VD, 2001-07-22, with Le Voyageur Mobile Studio.\nEngineer: Marti
EXTD=n Pearson\nProduced by Manfred Eicher.\n2CD: ECM 2021/22 [B0009887-02] (2007-10-16), UPC 602517373266, BMG D223356. YEAR: 2007
EXTT0=(Fats Waller//Andy Razaf)
EXTT1=(Richard Rogers//Lorenz Hart)
EXTT2=(Thelonious Monk)
EXTT3=(Gerry Mulligan)
EXTT4=(Jule Styne//Sammy Cahn)
EXTT5=(Bronislau Kaper//Ned Washington)
EXTT6=(Jimmy Van Heusen//Sammy Cahn)
PLAYORDER=
